<?xml version="1.0" encoding="iso-8859-1"?>
<!-- Generator: Adobe Illustrator 19.0.0, SVG Export Plug-In . SVG Version: 6.00 Build 0)  -->
<svg version="1.1" id="Layer_1" xmlns="http://www.w3.org/2000/svg" xmlns:xlink="http://www.w3.org/1999/xlink" x="0px" y="0px"
	 viewBox="0 0 505 505" style="enable-background:new 0 0 505 505;" xml:space="preserve">
<circle style="fill:#FFD05B;" cx="252.5" cy="252.5" r="252.5"/>
<polygon style="fill:#FFFFFF;" points="179.4,86.1 179.4,139.7 125.9,139.7 125.9,418.9 379.1,418.9 379.1,86.1 "/>
<g>
	<polygon style="fill:#E6E9EE;" points="179.4,86.1 125.9,139.7 179.4,139.7 	"/>
	<rect x="157.4" y="294.3" style="fill:#E6E9EE;" width="189.6" height="14.6"/>
	<rect x="157.4" y="325" style="fill:#E6E9EE;" width="189.6" height="14.6"/>
	<rect x="157.4" y="355.7" style="fill:#E6E9EE;" width="112.3" height="14.6"/>
</g>
<path style="fill:#4CDBC4;" d="M306.9,205.3c0,33.9-27.5,61.3-61.3,61.3s-61.3-27.5-61.3-61.3c0-33.9,27.5-61.4,61.3-61.4v61.4
	L306.9,205.3L306.9,205.3z"/>
<path style="fill:#FF7058;" d="M320.8,191.4h-61.3V130C293.3,130.1,320.8,157.5,320.8,191.4z"/>
<g>
</g>
<g>
</g>
<g>
</g>
<g>
</g>
<g>
</g>
<g>
</g>
<g>
</g>
<g>
</g>
<g>
</g>
<g>
</g>
<g>
</g>
<g>
</g>
<g>
</g>
<g>
</g>
<g>
</g>
</svg>
